<svg width="100%" height="100%" id="svg" viewBox="0 0 1440 590" xmlns="http://www.w3.org/2000/svg" class="transition duration-300 ease-in-out delay-150"><defs><linearGradient id="gradient" x1="0%" y1="50%" x2="100%" y2="50%"><stop offset="5%" stop-color="#F78DA7"></stop><stop offset="95%" stop-color="#8ED1FC"></stop></linearGradient></defs><path d="M 0,600 C 0,600 0,200 0,200 C 120.12440191387557,184.99521531100478 240.24880382775115,169.99043062200957 333,164 C 425.75119617224885,158.00956937799043 491.12918660287085,161.03349282296648 571,179 C 650.8708133971292,196.96650717703352 745.2344497607654,229.8755980861244 833,249 C 920.7655502392346,268.1244019138756 1001.9330143540672,273.46411483253587 1102,263 C 1202.0669856459328,252.53588516746413 1321.0334928229663,226.26794258373207 1440,200 C 1440,200 1440,600 1440,600 Z" stroke="none" stroke-width="0" fill="url(#gradient)" fill-opacity="0.53" class="transition-all duration-300 ease-in-out delay-150 path-0"></path><defs><linearGradient id="gradient" x1="0%" y1="50%" x2="100%" y2="50%"><stop offset="5%" stop-color="#F78DA7"></stop><stop offset="95%" stop-color="#8ED1FC"></stop></linearGradient></defs><path d="M 0,600 C 0,600 0,400 0,400 C 105.11961722488039,402.32535885167465 210.23923444976077,404.65071770334924 300,424 C 389.7607655502392,443.34928229665076 464.16267942583727,479.7224880382775 547,465 C 629.8373205741627,450.2775119617225 721.11004784689,384.4593301435407 835,373 C 948.88995215311,361.5406698564593 1085.3971291866028,404.4401913875598 1190,418 C 1294.6028708133972,431.5598086124402 1367.3014354066986,415.7799043062201 1440,400 C 1440,400 1440,600 1440,600 Z" stroke="none" stroke-width="0" fill="url(#gradient)" fill-opacity="1" class="transition-all duration-300 ease-in-out delay-150 path-1"></path></svg>